<?xml version="1.0" encoding="utf-8"?>
<!-- Generator: Adobe Illustrator 16.0.0, SVG Export Plug-In . SVG Version: 6.00 Build 0)  -->
<!DOCTYPE svg PUBLIC "-//W3C//DTD SVG 1.1//EN" "http://www.w3.org/Graphics/SVG/1.1/DTD/svg11.dtd">
<svg version="1.1" id="Layer_1" xmlns="http://www.w3.org/2000/svg" xmlns:xlink="http://www.w3.org/1999/xlink" x="0px" y="0px"
	 width="23px" height="23px" viewBox="0 0 23 23" enable-background="new 0 0 23 23" xml:space="preserve">
<g>
	<g>
		<path fill="#58595B" d="M8.696,17.621L8.696,17.621c-4.67,0-8.467-3.797-8.467-8.466c0-4.668,3.797-8.467,8.467-8.468
			c4.669,0,8.469,3.8,8.469,8.468S13.365,17.621,8.696,17.621z M8.696,1.625c-4.151,0.002-7.53,3.378-7.53,7.53
			s3.379,7.529,7.53,7.529c4.15-0.002,7.528-3.379,7.528-7.529C16.225,5.002,12.847,1.625,8.696,1.625z"/>
	</g>
	<g>
		<path fill="#58595B" d="M8.696,14.749c-3.086,0-5.593-2.51-5.593-5.595S5.61,3.559,8.696,3.559c3.084,0,5.594,2.51,5.594,5.595
			S11.78,14.749,8.696,14.749z M8.696,4.498c-2.566,0-4.654,2.089-4.654,4.657c0,2.567,2.088,4.655,4.654,4.655
			s4.653-2.088,4.653-4.655C13.35,6.586,11.263,4.498,8.696,4.498z"/>
	</g>
	<g>
		<path fill="#58595B" d="M19.771,22.771c-0.502,0-0.972-0.195-1.326-0.55l-2.933-2.931c-0.354-0.356-0.55-0.826-0.55-1.328
			c0-0.501,0.196-0.974,0.55-1.328l0.665-0.664c0.706-0.708,1.944-0.707,2.652,0l2.933,2.934c0.353,0.354,0.55,0.824,0.55,1.326
			s-0.197,0.973-0.55,1.328l-0.664,0.663C20.745,22.576,20.272,22.771,19.771,22.771z M17.504,16.361
			c-0.252,0-0.485,0.098-0.663,0.273L16.178,17.3C16,17.476,15.9,17.713,15.9,17.963c0,0.251,0.1,0.487,0.277,0.664l2.931,2.932
			c0.354,0.354,0.972,0.354,1.326,0l0.664-0.666c0.177-0.176,0.276-0.412,0.276-0.662s-0.1-0.485-0.276-0.664l-2.93-2.932
			C17.99,16.459,17.755,16.361,17.504,16.361z"/>
	</g>
	<g>
		<path fill="#58595B" d="M15.846,16.773c-0.12,0-0.24-0.046-0.333-0.139l-1.465-1.465c-0.183-0.183-0.183-0.479,0-0.664
			c0.185-0.182,0.481-0.182,0.664,0l1.466,1.465c0.182,0.185,0.182,0.48,0,0.664C16.085,16.728,15.965,16.773,15.846,16.773z"/>
	</g>
</g>
</svg>
