<?xml version="1.0" encoding="utf-8"?>
<!-- Generator: Adobe Illustrator 21.0.0, SVG Export Plug-In . SVG Version: 6.00 Build 0)  -->
<svg version="1.1" id="Layer_1" xmlns="http://www.w3.org/2000/svg" xmlns:xlink="http://www.w3.org/1999/xlink" x="0px" y="0px"
	 viewBox="0 0 250 49.8" style="enable-background:new 0 0 250 49.8;" xml:space="preserve">
<style type="text/css">
	.st0{fill:#28AE4D;}
	.st1{enable-background:new    ;}
	.st2{fill:#6600AB;}
</style>
<g>
	<g>
		<path d="M70.7,43.9c0.1-0.7-0.3-1.3-1.2-1.6l-1.1-0.4l-0.4-0.1c-1.1-0.5-1.6-1.2-1.5-2.1c0-0.5,0.2-0.9,0.5-1.2s0.7-0.6,1.1-0.8
			s1-0.3,1.5-0.3c0.5,0,1,0.1,1.4,0.3s0.7,0.5,0.9,0.9s0.3,0.8,0.2,1.3h-0.7c0.1-0.6-0.1-1-0.4-1.4S70.2,38,69.6,38
			c-0.6,0-1.1,0.1-1.6,0.4c-0.4,0.3-0.7,0.7-0.8,1.2c-0.1,0.4,0.1,0.7,0.4,1c0.3,0.3,0.8,0.5,1.5,0.7c0.9,0.3,1.5,0.6,1.9,1
			s0.5,0.9,0.5,1.5c0,0.5-0.2,0.9-0.5,1.2s-0.7,0.6-1.1,0.8s-1,0.3-1.5,0.3c-0.5,0-1-0.1-1.5-0.3s-0.8-0.5-1-0.9s-0.3-0.8-0.3-1.3
			h0.7c-0.1,0.6,0.1,1.1,0.5,1.4s0.9,0.5,1.5,0.5s1.2-0.1,1.7-0.4C70.4,44.8,70.7,44.4,70.7,43.9z"/>
		<path d="M73.2,46.1h-0.7l1.1-6.3h0.7L73.2,46.1z M73.8,37.9c0-0.3,0.2-0.4,0.5-0.5c0.2,0,0.3,0.1,0.3,0.1s0.1,0.2,0.1,0.3
			c0,0.1-0.1,0.3-0.2,0.3s-0.2,0.1-0.3,0.1C74,38.3,73.8,38.2,73.8,37.9z"/>
		<path d="M76.9,39.7l-0.2,1c0.6-0.8,1.3-1.2,2.2-1.1c0.4,0,0.8,0.1,1.1,0.3s0.5,0.5,0.5,0.9c0.3-0.4,0.6-0.7,1-0.9s0.8-0.3,1.3-0.3
			c0.6,0,1,0.2,1.3,0.6s0.4,0.9,0.4,1.6l0,0.1l-0.7,4.1H83l0.7-4.1c0-0.2,0-0.4,0-0.7c-0.1-0.7-0.5-1-1.2-1.1
			c-0.5,0-0.9,0.1-1.3,0.5c-0.4,0.3-0.7,0.7-0.8,1.2l-0.7,4.2H79l0.7-4.2c0.1-1.1-0.3-1.6-1.2-1.7c-0.4,0-0.9,0.1-1.3,0.4
			c-0.4,0.3-0.6,0.6-0.8,1.1l-0.8,4.3h-0.7l1.1-6.3H76.9z"/>
		<path d="M88.2,46.2c-0.4,0-0.7-0.1-1-0.2s-0.6-0.4-0.8-0.7l-0.6,3.2h-0.7l1.5-8.8h0.6l-0.2,0.9c0.6-0.7,1.2-1,2.1-1
			c0.6,0,1.1,0.2,1.4,0.7s0.5,1,0.5,1.8c0,0.2,0,0.5,0,0.7l0,0.2c-0.1,0.7-0.3,1.3-0.6,1.8s-0.6,0.9-1,1.1S88.6,46.2,88.2,46.2z
			 M90.3,42.8l0-0.6c0-0.6-0.1-1.1-0.3-1.5c-0.2-0.4-0.6-0.5-1.1-0.6c-0.4,0-0.8,0.1-1.1,0.3c-0.3,0.2-0.6,0.5-0.8,0.9l-0.5,3
			c0.1,0.4,0.3,0.6,0.6,0.8c0.3,0.2,0.6,0.3,1,0.3c0.6,0,1-0.2,1.4-0.6c0.4-0.4,0.7-1.1,0.8-1.9L90.3,42.8z"/>
		<path d="M92.8,46.1h-0.7l1.6-9h0.7L92.8,46.1z"/>
		<path d="M95.4,46.1h-0.7l1.1-6.3h0.7L95.4,46.1z M96,37.9c0-0.3,0.2-0.4,0.5-0.5c0.2,0,0.3,0.1,0.3,0.1s0.1,0.2,0.1,0.3
			c0,0.1-0.1,0.3-0.2,0.3s-0.2,0.1-0.3,0.1C96.2,38.3,96,38.2,96,37.9z"/>
		<path d="M97.8,46.1l1-5.8h-1l0.1-0.6h1l0.1-0.9c0.1-0.6,0.3-1.1,0.7-1.4s0.8-0.5,1.4-0.5c0.2,0,0.5,0,0.8,0.1l-0.1,0.6
			c-0.2-0.1-0.4-0.1-0.6-0.1c-0.4,0-0.7,0.1-1,0.4s-0.4,0.6-0.5,1.1l-0.1,0.8h1.5l-0.1,0.6h-1.5l-1,5.8H97.8z"/>
		<path d="M103.4,45l2.7-5.3h0.8l-3.9,7.4c-0.3,0.6-0.6,1-0.9,1.2s-0.7,0.4-1.1,0.3c-0.1,0-0.3,0-0.6-0.1l0.1-0.6l0.4,0
			c0.7,0,1.2-0.4,1.6-1.2l0.4-0.9l-1.2-6.2h0.7L103.4,45z"/>
		<path d="M111.8,45l2.7-5.3h0.8l-3.9,7.4c-0.3,0.6-0.6,1-0.9,1.2s-0.7,0.4-1.1,0.3c-0.1,0-0.3,0-0.6-0.1L109,48l0.4,0
			c0.7,0,1.2-0.4,1.6-1.2l0.4-0.9l-1.2-6.2h0.7L111.8,45z"/>
		<path d="M115.4,42.8c0.1-0.6,0.3-1.2,0.6-1.7s0.7-0.9,1.1-1.2s0.9-0.4,1.5-0.4c0.5,0,1,0.2,1.3,0.4s0.6,0.7,0.8,1.1s0.2,1,0.2,1.6
			l0,0.1c-0.1,1-0.5,1.8-1.1,2.4s-1.3,0.9-2.1,0.9c-0.7,0-1.3-0.3-1.7-0.8s-0.6-1.2-0.6-2l0-0.3L115.4,42.8z M116.1,43
			c-0.1,0.5,0,0.9,0.1,1.3s0.3,0.7,0.6,0.9s0.6,0.3,1,0.4c0.4,0,0.8-0.1,1.2-0.3s0.6-0.5,0.9-0.9s0.4-0.9,0.4-1.3l0-0.2
			c0.1-0.8,0-1.4-0.3-1.8s-0.7-0.7-1.3-0.7c-0.6,0-1.2,0.2-1.6,0.7s-0.7,1.2-0.8,2L116.1,43z"/>
		<path d="M126,45.3c-0.5,0.6-1.2,0.9-2.1,0.9c-0.6,0-1-0.2-1.3-0.6s-0.4-1-0.3-1.7l0.7-4.1h0.7l-0.7,4.1c0,0.2,0,0.4,0,0.6
			c0,0.4,0.1,0.6,0.3,0.8s0.4,0.3,0.8,0.3c0.5,0,0.9-0.1,1.3-0.3s0.7-0.5,0.8-0.9l0.8-4.6h0.7l-1.1,6.3h-0.7L126,45.3z"/>
		<path d="M132.1,40.3c-0.2,0-0.3,0-0.5-0.1c-0.4,0-0.9,0.1-1.2,0.4s-0.6,0.6-0.7,1l-0.8,4.4h-0.7l1.1-6.3h0.7l-0.2,1
			c0.2-0.4,0.5-0.7,0.8-0.9s0.7-0.3,1.1-0.3c0.1,0,0.3,0,0.5,0.1L132.1,40.3z"/>
		<path d="M137.6,45.6c0.5,0,0.9-0.1,1.2-0.4s0.6-0.6,0.7-1.1h0.7c-0.1,0.6-0.4,1.1-0.9,1.5s-1.1,0.6-1.7,0.6
			c-0.5,0-0.9-0.2-1.3-0.4s-0.6-0.6-0.8-1.1s-0.2-1-0.1-1.6l0-0.3c0-0.4,0.1-0.8,0.3-1.2s0.4-0.7,0.6-1s0.6-0.5,0.9-0.7
			s0.8-0.3,1.2-0.2c0.6,0,1.2,0.2,1.5,0.7s0.6,1,0.5,1.6l-0.7,0c0-0.5-0.1-0.9-0.4-1.2s-0.6-0.5-1.1-0.5c-0.5,0-0.9,0.1-1.3,0.4
			s-0.7,0.7-0.8,1.3S136,43,136,43.6c0,0.6,0.2,1.1,0.4,1.5S137.1,45.6,137.6,45.6z"/>
		<path d="M141.3,42.8c0.1-0.6,0.3-1.2,0.6-1.7s0.7-0.9,1.1-1.2s0.9-0.4,1.5-0.4c0.5,0,1,0.2,1.3,0.4s0.6,0.7,0.8,1.1s0.2,1,0.2,1.6
			l0,0.1c-0.1,1-0.5,1.8-1.1,2.4s-1.3,0.9-2.1,0.9c-0.7,0-1.3-0.3-1.7-0.8s-0.6-1.2-0.6-2l0-0.3L141.3,42.8z M142,43
			c-0.1,0.5,0,0.9,0.1,1.3s0.3,0.7,0.6,0.9s0.6,0.3,1,0.4c0.4,0,0.8-0.1,1.2-0.3s0.6-0.5,0.9-0.9s0.4-0.9,0.4-1.3l0-0.2
			c0.1-0.8,0-1.4-0.3-1.8s-0.7-0.7-1.3-0.7c-0.6,0-1.2,0.2-1.6,0.7s-0.7,1.2-0.8,2L142,43z"/>
		<path d="M149.5,39.7l-0.2,1.1c0.3-0.4,0.6-0.7,1-0.9s0.8-0.3,1.2-0.3c0.6,0,1.1,0.2,1.3,0.6s0.4,1,0.3,1.7l-0.7,4.1h-0.7l0.7-4.1
			c0-0.2,0-0.4,0-0.6c-0.1-0.7-0.4-1.1-1.1-1.1c-0.4,0-0.8,0.1-1.1,0.4c-0.4,0.3-0.7,0.6-0.9,1.1l-0.8,4.3h-0.7l1.1-6.3H149.5z"/>
		<path d="M156.7,38.1l-0.3,1.6h1.3l-0.1,0.6h-1.3l-0.7,4.2l0,0.4c0,0.4,0.2,0.6,0.6,0.7c0.1,0,0.3,0,0.6,0l0,0.6
			c-0.2,0.1-0.5,0.1-0.7,0.1c-0.4,0-0.7-0.2-0.9-0.4s-0.3-0.7-0.2-1.2l0.7-4.2h-1.1l0.1-0.6h1.1l0.3-1.6H156.7z"/>
		<path d="M161.9,40.3c-0.2,0-0.3,0-0.5-0.1c-0.4,0-0.9,0.1-1.2,0.4s-0.6,0.6-0.7,1l-0.8,4.4H158l1.1-6.3h0.7l-0.2,1
			c0.2-0.4,0.5-0.7,0.8-0.9s0.7-0.3,1.1-0.3c0.1,0,0.3,0,0.5,0.1L161.9,40.3z"/>
		<path d="M165.7,46.1c0-0.1,0-0.3,0-0.4l0.1-0.4c-0.3,0.3-0.6,0.6-1,0.7s-0.8,0.3-1.2,0.3c-0.5,0-1-0.2-1.3-0.5s-0.5-0.7-0.4-1.2
			c0-0.4,0.2-0.8,0.4-1.1s0.6-0.5,1.1-0.7s1-0.3,1.6-0.3l1.3,0l0.1-0.7c0-0.4,0-0.8-0.3-1s-0.6-0.4-1-0.4c-0.5,0-0.9,0.1-1.2,0.3
			s-0.6,0.5-0.6,0.9h-0.7c0.1-0.6,0.4-1,0.9-1.4s1.1-0.5,1.7-0.5c0.7,0,1.2,0.2,1.5,0.6s0.5,0.9,0.4,1.5l-0.5,3.2l0,0.5
			c0,0.2,0,0.4,0,0.6l0,0.1H165.7z M163.6,45.6c0.4,0,0.8-0.1,1.2-0.3c0.4-0.2,0.7-0.5,1-0.9l0.2-1.4l-1.1,0c-0.7,0-1.3,0.1-1.7,0.4
			c-0.4,0.3-0.7,0.6-0.7,1.1c0,0.3,0.1,0.6,0.3,0.9C162.9,45.4,163.2,45.6,163.6,45.6z"/>
		<path d="M170.5,45.6c0.5,0,0.9-0.1,1.2-0.4s0.6-0.6,0.7-1.1h0.7c-0.1,0.6-0.4,1.1-0.9,1.5s-1.1,0.6-1.7,0.6
			c-0.5,0-0.9-0.2-1.3-0.4s-0.6-0.6-0.8-1.1s-0.2-1-0.1-1.6l0-0.3c0-0.4,0.1-0.8,0.3-1.2s0.4-0.7,0.6-1s0.6-0.5,0.9-0.7
			s0.8-0.3,1.2-0.2c0.6,0,1.2,0.2,1.5,0.7s0.6,1,0.5,1.6l-0.7,0c0-0.5-0.1-0.9-0.4-1.2s-0.6-0.5-1.1-0.5c-0.5,0-0.9,0.1-1.3,0.4
			s-0.7,0.7-0.8,1.3s-0.3,1.1-0.3,1.7c0,0.6,0.2,1.1,0.4,1.5S170,45.6,170.5,45.6z"/>
		<path d="M176.5,38.1l-0.3,1.6h1.3l-0.1,0.6h-1.3l-0.7,4.2l0,0.4c0,0.4,0.2,0.6,0.6,0.7c0.1,0,0.3,0,0.6,0l0,0.6
			c-0.2,0.1-0.5,0.1-0.7,0.1c-0.4,0-0.7-0.2-0.9-0.4s-0.3-0.7-0.2-1.2l0.7-4.2h-1.1l0.1-0.6h1.1l0.3-1.6H176.5z"/>
		<path d="M182.5,39.7l-0.2,1c0.6-0.8,1.3-1.2,2.2-1.1c0.4,0,0.8,0.1,1.1,0.3s0.5,0.5,0.5,0.9c0.3-0.4,0.6-0.7,1-0.9
			s0.8-0.3,1.3-0.3c0.6,0,1,0.2,1.3,0.6s0.4,0.9,0.4,1.6l0,0.1l-0.7,4.1h-0.7l0.7-4.1c0-0.2,0-0.4,0-0.7c-0.1-0.7-0.5-1-1.2-1.1
			c-0.5,0-0.9,0.1-1.3,0.5c-0.4,0.3-0.7,0.7-0.8,1.2l-0.7,4.2h-0.7l0.7-4.2c0.1-1.1-0.3-1.6-1.2-1.7c-0.4,0-0.9,0.1-1.3,0.4
			c-0.4,0.3-0.6,0.6-0.8,1.1l-0.8,4.3h-0.7l1.1-6.3H182.5z"/>
		<path d="M195.1,46.1c0-0.1,0-0.3,0-0.4l0.1-0.4c-0.3,0.3-0.6,0.6-1,0.7s-0.8,0.3-1.2,0.3c-0.5,0-1-0.2-1.3-0.5s-0.5-0.7-0.4-1.2
			c0-0.4,0.2-0.8,0.4-1.1s0.6-0.5,1.1-0.7s1-0.3,1.6-0.3l1.3,0l0.1-0.7c0-0.4,0-0.8-0.3-1s-0.6-0.4-1-0.4c-0.5,0-0.9,0.1-1.2,0.3
			s-0.6,0.5-0.6,0.9h-0.7c0.1-0.6,0.4-1,0.9-1.4s1.1-0.5,1.7-0.5c0.7,0,1.2,0.2,1.5,0.6s0.5,0.9,0.4,1.5l-0.5,3.2l0,0.5
			c0,0.2,0,0.4,0,0.6l0,0.1H195.1z M193,45.6c0.4,0,0.8-0.1,1.2-0.3c0.4-0.2,0.7-0.5,1-0.9l0.2-1.4l-1.1,0c-0.7,0-1.3,0.1-1.7,0.4
			c-0.4,0.3-0.7,0.6-0.7,1.1c0,0.3,0.1,0.6,0.3,0.9C192.4,45.4,192.6,45.6,193,45.6z"/>
		<path d="M199.2,39.7l-0.2,1.1c0.3-0.4,0.6-0.7,1-0.9s0.8-0.3,1.2-0.3c0.6,0,1.1,0.2,1.3,0.6s0.4,1,0.3,1.7l-0.7,4.1h-0.7l0.7-4.1
			c0-0.2,0-0.4,0-0.6c-0.1-0.7-0.4-1.1-1.1-1.1c-0.4,0-0.8,0.1-1.1,0.4c-0.4,0.3-0.7,0.6-0.9,1.1l-0.8,4.3h-0.7l1.1-6.3H199.2z"/>
		<path d="M207.8,46.1c0-0.1,0-0.3,0-0.4l0.1-0.4c-0.3,0.3-0.6,0.6-1,0.7s-0.8,0.3-1.2,0.3c-0.5,0-1-0.2-1.3-0.5s-0.5-0.7-0.4-1.2
			c0-0.4,0.2-0.8,0.4-1.1s0.6-0.5,1.1-0.7s1-0.3,1.6-0.3l1.3,0l0.1-0.7c0-0.4,0-0.8-0.3-1s-0.6-0.4-1-0.4c-0.5,0-0.9,0.1-1.2,0.3
			s-0.6,0.5-0.6,0.9h-0.7c0.1-0.6,0.4-1,0.9-1.4s1.1-0.5,1.7-0.5c0.7,0,1.2,0.2,1.5,0.6s0.5,0.9,0.4,1.5l-0.5,3.2l0,0.5
			c0,0.2,0,0.4,0,0.6l0,0.1H207.8z M205.8,45.6c0.4,0,0.8-0.1,1.2-0.3c0.4-0.2,0.7-0.5,1-0.9l0.2-1.4l-1.1,0c-0.7,0-1.3,0.1-1.7,0.4
			c-0.4,0.3-0.7,0.6-0.7,1.1c0,0.3,0.1,0.6,0.3,0.9C205.1,45.4,205.4,45.6,205.8,45.6z"/>
		<path d="M213.3,39.6c0.4,0,0.7,0.1,1,0.3s0.6,0.4,0.7,0.8l0.2-0.9h0.7l-1.1,6.2c-0.1,0.5-0.2,1-0.5,1.4s-0.6,0.7-1,0.9
			s-0.9,0.3-1.4,0.3c-0.4,0-0.8-0.1-1.1-0.3c-0.4-0.2-0.7-0.5-0.9-0.8l0.4-0.4c0.4,0.6,0.9,0.9,1.6,0.9c0.6,0,1.1-0.2,1.5-0.5
			s0.6-0.9,0.7-1.5l0.2-0.7c-0.6,0.6-1.2,1-2,0.9c-0.6,0-1.1-0.2-1.4-0.7s-0.5-1-0.5-1.8c0-0.7,0.1-1.4,0.4-2.1s0.6-1.2,1.1-1.5
			S212.8,39.6,213.3,39.6z M211.2,43l0,0.5c0,0.6,0.1,1.1,0.3,1.5c0.2,0.3,0.6,0.5,1,0.5c0.4,0,0.8-0.1,1.1-0.3
			c0.3-0.2,0.6-0.5,0.9-0.9l0.5-3c-0.1-0.4-0.3-0.7-0.5-0.9c-0.3-0.2-0.6-0.3-1-0.3c-0.6,0-1.1,0.2-1.5,0.7
			C211.5,41.4,211.3,42.1,211.2,43z"/>
		<path d="M219.2,46.2c-0.5,0-0.9-0.1-1.3-0.4s-0.6-0.7-0.8-1.1s-0.2-1-0.2-1.5l0-0.2c0.1-0.6,0.2-1.1,0.5-1.7s0.7-0.9,1.1-1.2
			s0.9-0.4,1.4-0.4c0.5,0,0.9,0.1,1.2,0.4s0.6,0.6,0.7,1s0.2,0.9,0.1,1.5l0,0.4h-4.4l0,0.1c-0.1,0.4,0,0.8,0.1,1.2s0.3,0.7,0.6,0.9
			s0.6,0.3,1,0.4c0.4,0,0.7-0.1,1-0.2s0.6-0.4,0.8-0.6l0.4,0.3c-0.3,0.4-0.6,0.6-1,0.8S219.7,46.2,219.2,46.2z M220,40.2
			c-0.5,0-1,0.2-1.4,0.5s-0.7,0.9-0.9,1.6l3.7,0l0-0.1c0.1-0.6,0-1-0.3-1.4S220.4,40.2,220,40.2z"/>
		<path d="M224.5,39.7l-0.2,1c0.6-0.8,1.3-1.2,2.2-1.1c0.4,0,0.8,0.1,1.1,0.3s0.5,0.5,0.5,0.9c0.3-0.4,0.6-0.7,1-0.9
			s0.8-0.3,1.3-0.3c0.6,0,1,0.2,1.3,0.6s0.4,0.9,0.4,1.6l0,0.1l-0.7,4.1h-0.7l0.7-4.1c0-0.2,0-0.4,0-0.7c-0.1-0.7-0.5-1-1.2-1.1
			c-0.5,0-0.9,0.1-1.3,0.5c-0.4,0.3-0.7,0.7-0.8,1.2l-0.7,4.2h-0.7l0.7-4.2c0.1-1.1-0.3-1.6-1.2-1.7c-0.4,0-0.9,0.1-1.3,0.4
			c-0.4,0.3-0.6,0.6-0.8,1.1l-0.8,4.3h-0.7l1.1-6.3H224.5z"/>
		<path d="M235.7,46.2c-0.5,0-0.9-0.1-1.3-0.4s-0.6-0.7-0.8-1.1s-0.2-1-0.2-1.5l0-0.2c0.1-0.6,0.2-1.1,0.5-1.7s0.7-0.9,1.1-1.2
			s0.9-0.4,1.4-0.4c0.5,0,0.9,0.1,1.2,0.4s0.6,0.6,0.7,1s0.2,0.9,0.1,1.5l0,0.4h-4.4l0,0.1c-0.1,0.4,0,0.8,0.1,1.2s0.3,0.7,0.6,0.9
			s0.6,0.3,1,0.4c0.4,0,0.7-0.1,1-0.2s0.6-0.4,0.8-0.6l0.4,0.3c-0.3,0.4-0.6,0.6-1,0.8S236.1,46.2,235.7,46.2z M236.4,40.2
			c-0.5,0-1,0.2-1.4,0.5s-0.7,0.9-0.9,1.6l3.7,0l0-0.1c0.1-0.6,0-1-0.3-1.4S236.9,40.2,236.4,40.2z"/>
		<path d="M241,39.7l-0.2,1.1c0.3-0.4,0.6-0.7,1-0.9s0.8-0.3,1.2-0.3c0.6,0,1.1,0.2,1.3,0.6s0.4,1,0.3,1.7l-0.7,4.1h-0.7l0.7-4.1
			c0-0.2,0-0.4,0-0.6c-0.1-0.7-0.4-1.1-1.1-1.1c-0.4,0-0.8,0.1-1.1,0.4c-0.4,0.3-0.7,0.6-0.9,1.1l-0.8,4.3h-0.7l1.1-6.3H241z"/>
		<path d="M248.1,38.1l-0.3,1.6h1.3l-0.1,0.6h-1.3l-0.7,4.2l0,0.4c0,0.4,0.2,0.6,0.6,0.7c0.1,0,0.3,0,0.6,0l0,0.6
			c-0.2,0.1-0.5,0.1-0.7,0.1c-0.4,0-0.7-0.2-0.9-0.4s-0.3-0.7-0.2-1.2l0.7-4.2h-1.1l0.1-0.6h1.1l0.3-1.6H248.1z"/>
	</g>
	<g>
		<path class="st0" d="M55.1,24.2c-4.9-1-13.4-1.1-18.6-0.7c-4.2,0.3-6.1,3.1-2.7,4.9c3.4,1.8,5.4,3.1,5.4,3.1s-19.6-1.3-31.3,3.2
			c-10.1,4-5.8,9.6,5.1,10.4c8.6,0.7,16.8,0.4,27.4-3.2c5.1-1.8,8.5-4.1,6-8.5h5.1l-0.7-1.2h-7c0,0-5.3-3.9-8.6-5.2
			c-0.7-0.3-1.9-1.1,1-1.5c3-0.4,11-1.3,20,0.6C59.5,26.8,58.9,24.9,55.1,24.2z M44.3,36.3c0.2,2.4-8.2,5.2-18.9,6.2
			C14.8,43.5,6,42.4,5.7,40s8.2-5.2,18.9-6.2C35.3,32.7,44.1,33.9,44.3,36.3z"/>
		<polygon class="st0" points="51.4,33.4 51.4,33.4 51.4,33.5 		"/>
	</g>
	<g>
		<g class="st1">
			<path class="st0" d="M69.9,26.1c0-0.9-0.3-1.6-1.1-2.1c-0.7-0.5-1.8-0.9-3.2-1.2c-1.4-0.3-2.6-0.7-3.3-1
				c-0.8-0.4-1.4-0.8-1.7-1.4c-0.4-0.6-0.6-1.2-0.6-2.1c0-1.2,0.5-2.3,1.6-3.2c1.1-0.8,2.4-1.2,4.1-1.2c1.8,0,3.2,0.4,4.3,1.3
				c1.1,0.9,1.6,2.1,1.6,3.5h-1.8c0-0.9-0.4-1.7-1.2-2.3c-0.7-0.6-1.8-0.9-3-0.9s-2.1,0.2-2.8,0.7s-1.1,1.2-1.1,2
				c0,0.8,0.3,1.4,0.9,1.9c0.6,0.5,1.7,0.8,3.2,1.2c1.6,0.3,2.7,0.7,3.5,1.2C70,23,70.6,23.5,71,24c0.3,0.6,0.6,1.3,0.6,2.1
				c0,1.3-0.5,2.5-1.7,3.2c-1.1,0.8-2.5,1.2-4.3,1.2c-1.9,0-3.4-0.4-4.6-1.3s-1.7-2.1-1.7-3.5h1.8c0.1,1,0.5,1.8,1.3,2.4
				s1.9,0.8,3.2,0.8c1.2,0,2.2-0.2,3-0.8C69.5,27.6,69.9,26.9,69.9,26.1z"/>
			<path class="st0" d="M77.3,14.1l0.1,2.6c0.6-1,1.3-1.7,2.2-2.2c0.9-0.5,1.9-0.7,3-0.7c2.6,0,4.1,1,4.8,3.2c0.6-1,1.3-1.8,2.3-2.3
				c0.9-0.5,2-0.8,3.2-0.8c3.5,0,5.2,1.9,5.3,5.6v10.8h-1.8V19.6c0-1.4-0.3-2.5-0.9-3.2c-0.7-0.7-1.6-1-3-1c-1.3,0-2.4,0.4-3.2,1.2
				c-0.9,0.8-1.4,1.8-1.5,3v10.7h-1.8V19.6c0-1.4-0.3-2.4-1-3.1c-0.7-0.7-1.6-1-3-1c-1.2,0-2.1,0.3-2.9,0.9
				c-0.8,0.7-1.4,1.6-1.8,2.9v11h-1.8V14.1H77.3z"/>
			<path class="st0" d="M112.9,30.2c-0.2-0.5-0.3-1.2-0.3-2.2c-0.7,0.8-1.4,1.4-2.4,1.9c-0.9,0.4-2,0.7-3.1,0.7
				c-1.6,0-2.8-0.4-3.7-1.3c-0.9-0.8-1.4-2-1.4-3.2c0-1.6,0.7-2.8,2-3.7s3.2-1.4,5.5-1.4h3.2V19c0-1.2-0.3-2.1-1.1-2.7
				c-0.7-0.7-1.7-1-3.1-1c-1.2,0-2.3,0.3-3.1,0.9c-0.8,0.7-1.2,1.4-1.2,2.3h-1.8c0-1.3,0.6-2.4,1.8-3.3c1.2-0.9,2.7-1.4,4.4-1.4
				c1.8,0,3.2,0.4,4.2,1.3c1,0.9,1.6,2.2,1.6,3.7v7.6c0,1.6,0.2,2.7,0.5,3.5v0.2L112.9,30.2L112.9,30.2z M107.3,28.8
				c1.2,0,2.2-0.2,3.2-0.8c0.9-0.6,1.6-1.3,2.1-2.3v-3.6h-3.2c-1.8,0-3.2,0.3-4.1,1c-1,0.7-1.5,1.5-1.5,2.6c0,0.9,0.3,1.7,1,2.2
				C105.3,28.6,106.2,28.8,107.3,28.8z"/>
			<path class="st0" d="M126.5,15.6c-0.3-0.1-0.7-0.1-1.2-0.1c-1.2,0-2.1,0.3-2.8,0.9c-0.7,0.7-1.3,1.5-1.7,2.7v11.1h-1.8V14.1h1.7
				l0.1,2.6c0.9-1.9,2.5-2.9,4.6-2.9c0.5,0,0.9,0.1,1.2,0.2L126.5,15.6L126.5,15.6z"/>
			<path class="st0" d="M132.8,9.9v4.1h3.3v1.5h-3.3v10.8c0,0.9,0.2,1.6,0.5,2c0.3,0.4,0.8,0.7,1.6,0.7c0.3,0,0.7-0.1,1.4-0.2
				l0.1,1.4c-0.4,0.2-1.2,0.2-1.9,0.2c-1.2,0-2.1-0.3-2.7-1.1c-0.5-0.7-0.8-1.7-0.8-3.2V15.5h-3V14h3V9.9L132.8,9.9L132.8,9.9z"/>
		</g>
		<g class="st1">
			<path class="st2" d="M145.2,27.6c0.9,0,1.7-0.2,2.2-0.8c0.6-0.5,0.9-1.2,0.9-1.9h3.4c-0.1,1-0.3,1.9-0.9,2.8
				c-0.6,0.8-1.4,1.6-2.4,2.1s-2.1,0.7-3.2,0.7c-2.2,0-4.1-0.7-5.4-2.2s-2-3.5-2-6.1v-0.3c0-2.5,0.7-4.4,2-5.9
				c1.3-1.5,3.1-2.2,5.4-2.2c1.9,0,3.5,0.5,4.6,1.7s1.8,2.6,1.9,4.4h-3.4c-0.1-0.9-0.3-1.7-0.9-2.3c-0.6-0.6-1.3-0.9-2.2-0.9
				c-1.2,0-2.1,0.4-2.7,1.2c-0.6,0.8-0.9,2.2-1,3.9v0.6c0,1.7,0.3,3.1,0.9,3.9C143.1,27.2,144.1,27.6,145.2,27.6z"/>
			<path class="st2" d="M153.9,22c0-1.6,0.3-3,0.9-4.2c0.7-1.2,1.5-2.2,2.7-2.9c1.2-0.7,2.4-1,3.9-1c2.2,0,4,0.7,5.3,2.1
				c1.3,1.4,2.1,3.2,2.2,5.6v0.8c0,1.6-0.3,3-0.9,4.2c-0.6,1.2-1.5,2.2-2.6,2.9c-1.2,0.7-2.5,1-4,1c-2.3,0-4.1-0.7-5.5-2.3
				C154.7,26.6,153.9,24.5,153.9,22L153.9,22L153.9,22z M157.5,22.3c0,1.7,0.3,3,1,3.9c0.7,0.9,1.7,1.4,2.9,1.4s2.2-0.5,2.9-1.4
				c0.7-0.9,1-2.3,1-4.1c0-1.6-0.3-2.9-1-3.9c-0.7-0.9-1.7-1.4-2.9-1.4c-1.2,0-2.1,0.4-2.8,1.4C157.9,19,157.5,20.4,157.5,22.3z"/>
			<path class="st2" d="M175.3,14.1l0.1,1.9c1.2-1.4,2.7-2.2,4.7-2.2c3.4,0,5.1,1.9,5.1,5.7v10.6h-3.6V19.7c0-1-0.2-1.8-0.7-2.3
				c-0.4-0.5-1.2-0.7-2.2-0.7c-1.5,0-2.6,0.7-3.2,2v11.4h-3.6v-16H175.3z"/>
			<path class="st2" d="M193.5,10.1V14h2.8v2.7h-2.8v9c0,0.7,0.2,1.1,0.3,1.3c0.2,0.2,0.7,0.4,1.3,0.4c0.4,0,0.8-0.1,1.2-0.2v2.8
				c-0.8,0.2-1.6,0.3-2.4,0.3c-2.8,0-4.1-1.5-4.1-4.6v-9.1h-2.7v-2.7h2.7v-4H193.5z"/>
			<path class="st2" d="M207.5,17.3c-0.5-0.1-1-0.2-1.5-0.2c-1.7,0-2.8,0.7-3.4,1.9v11h-3.6v-16h3.5l0.1,1.8
				c0.8-1.4,2.1-2.1,3.6-2.1c0.5,0,0.9,0.1,1.3,0.2V17.3z"/>
			<path class="st2" d="M218.9,30.2c-0.2-0.3-0.3-0.8-0.4-1.5c-1.2,1.2-2.6,1.8-4.2,1.8c-1.6,0-3-0.4-4-1.4c-1-0.9-1.5-2.1-1.5-3.4
				c0-1.7,0.7-3.1,1.9-4s3.1-1.4,5.5-1.4h2.2v-1.1c0-0.8-0.2-1.5-0.7-2c-0.4-0.5-1.2-0.7-2.1-0.7c-0.8,0-1.5,0.2-2,0.7
				c-0.5,0.4-0.8,0.9-0.8,1.6h-3.6c0-0.9,0.3-1.7,0.9-2.5c0.6-0.7,1.4-1.4,2.4-1.8s2.2-0.7,3.4-0.7c1.9,0,3.4,0.5,4.6,1.4
				c1.2,0.9,1.7,2.3,1.7,4v7.3c0,1.4,0.2,2.6,0.7,3.5v0.2H218.9L218.9,30.2z M215,27.6c0.7,0,1.4-0.2,2-0.5c0.7-0.3,1.2-0.8,1.4-1.4
				v-3.1h-1.9c-1.3,0-2.3,0.2-3,0.7c-0.7,0.4-1,1.2-1,2c0,0.7,0.2,1.2,0.7,1.7C213.6,27.4,214.2,27.6,215,27.6z"/>
			<path class="st2" d="M232.4,27.6c0.9,0,1.7-0.2,2.2-0.8c0.6-0.5,0.9-1.2,0.9-1.9h3.4c-0.1,1-0.3,1.9-0.9,2.8
				c-0.6,0.8-1.4,1.6-2.4,2.1c-1,0.5-2.1,0.7-3.2,0.7c-2.2,0-4.1-0.7-5.4-2.2c-1.3-1.5-2-3.5-2-6.1v-0.3c0-2.5,0.7-4.4,2-5.9
				c1.3-1.5,3.1-2.2,5.4-2.2c1.9,0,3.5,0.5,4.6,1.7c1.2,1.2,1.8,2.6,1.9,4.4h-3.4c-0.1-0.9-0.3-1.7-0.9-2.3
				c-0.6-0.6-1.3-0.9-2.2-0.9c-1.2,0-2.1,0.4-2.7,1.2c-0.7,0.8-0.9,2.2-1,3.9v0.6c0,1.7,0.3,3.1,0.9,3.9
				C230.4,27.2,231.3,27.6,232.4,27.6z"/>
			<path class="st2" d="M246.3,10.1V14h2.8v2.7h-2.8v9c0,0.7,0.2,1.1,0.3,1.3c0.2,0.2,0.7,0.4,1.3,0.4c0.4,0,0.8-0.1,1.2-0.2v2.8
				c-0.8,0.2-1.6,0.3-2.4,0.3c-2.8,0-4.1-1.5-4.1-4.6v-9.1H240v-2.7h2.7v-4H246.3z"/>
		</g>
	</g>
	<g>
		<polygon class="st2" points="50,30.9 48.8,32.2 50.7,33.4 		"/>
		<polygon class="st2" points="48.1,26.4 49.4,30.3 48.1,31.5 45,29.6 		"/>
		<polygon class="st2" points="47.5,25.8 44.3,28.9 25.2,7.9 28.4,4.7 		"/>
		<polygon class="st2" points="21.4,2.2 23.3,0.9 25.8,4.1 24.6,5.4 		"/>
		<path class="st2" d="M23.3,7.3L24,7.9c0,0,2.6-2.7,3.6-3.5c0.5-0.4,0.7-0.3,1.2,0.1c1.3,1.2,8.5,9.2,8.5,9.2v-1.2
			c0,0-7.9-8.7-8.5-9.2c-0.7-0.7-1.2-0.4-1.9,0.2C26.3,4.2,23.3,7.3,23.3,7.3z"/>
	</g>
</g>
</svg>
